<svg width="1210" height="492" viewBox="0 0 1210 492" fill="none" xmlns="http://www.w3.org/2000/svg">
<g filter="url(#filter0_i_2061_81)">
<circle cx="209" cy="204" r="100" fill="#7BE9C6"/>
</g>
<g filter="url(#filter1_i_2061_81)">
<circle cx="309" cy="304" r="100" fill="#1620E4"/>
</g>
<g filter="url(#filter2_i_2061_81)">
<circle cx="209" cy="204" r="100" fill="#7BE9C6"/>
</g>
<g filter="url(#filter3_i_2061_81)">
<circle cx="309" cy="304" r="100" fill="#1620E4"/>
</g>
<path d="M509.704 294V204.4H530.312V294H509.704ZM545.528 294V204.4H565.496V282.096L564.472 294H545.528ZM583.672 295.536C578.381 295.536 573.944 294.213 570.36 291.568C566.776 288.837 564.088 284.955 562.296 279.92C560.504 274.885 559.608 268.912 559.608 262C559.608 255.003 560.504 249.029 562.296 244.08C564.088 239.045 566.776 235.205 570.36 232.56C573.944 229.829 578.381 228.464 583.672 228.464C589.645 228.464 594.808 229.829 599.16 232.56C603.512 235.205 606.84 239.045 609.144 244.08C611.448 249.029 612.6 255.003 612.6 262C612.6 268.912 611.448 274.885 609.144 279.92C606.84 284.955 603.512 288.837 599.16 291.568C594.808 294.213 589.645 295.536 583.672 295.536ZM578.552 277.104C581.112 277.104 583.373 276.464 585.336 275.184C587.299 273.904 588.877 272.155 590.072 269.936C591.267 267.632 591.864 264.987 591.864 262C591.864 259.013 591.309 256.411 590.2 254.192C589.091 251.888 587.512 250.096 585.464 248.816C583.501 247.536 581.24 246.896 578.68 246.896C576.12 246.896 573.816 247.536 571.768 248.816C569.805 250.096 568.269 251.888 567.16 254.192C566.051 256.496 565.496 259.099 565.496 262C565.496 264.987 566.051 267.632 567.16 269.936C568.269 272.155 569.805 273.904 571.768 275.184C573.731 276.464 575.992 277.104 578.552 277.104ZM653.254 295.536C646.513 295.536 640.582 294.128 635.462 291.312C630.342 288.411 626.289 284.443 623.302 279.408C620.401 274.373 618.95 268.571 618.95 262C618.95 255.429 620.358 249.627 623.174 244.592C626.075 239.557 630.086 235.632 635.206 232.816C640.411 229.915 646.299 228.464 652.87 228.464C659.611 228.464 665.542 229.915 670.662 232.816C675.867 235.632 679.878 239.557 682.694 244.592C685.595 249.627 687.046 255.429 687.046 262C687.046 268.571 685.595 274.373 682.694 279.408C679.878 284.443 675.91 288.411 670.79 291.312C665.67 294.128 659.825 295.536 653.254 295.536ZM653.254 277.104C655.814 277.104 658.075 276.464 660.038 275.184C662.086 273.904 663.665 272.155 664.774 269.936C665.969 267.632 666.566 264.987 666.566 262C666.566 259.013 665.969 256.411 664.774 254.192C663.665 251.888 662.086 250.096 660.038 248.816C657.99 247.536 655.643 246.896 652.998 246.896C650.353 246.896 648.006 247.536 645.958 248.816C643.91 250.096 642.289 251.888 641.094 254.192C639.985 256.411 639.43 259.013 639.43 262C639.43 264.987 639.985 267.632 641.094 269.936C642.289 272.155 643.91 273.904 645.958 275.184C648.091 276.464 650.523 277.104 653.254 277.104ZM727.754 295.536C721.013 295.536 715.082 294.128 709.962 291.312C704.842 288.411 700.789 284.443 697.802 279.408C694.901 274.373 693.45 268.571 693.45 262C693.45 255.429 694.858 249.627 697.674 244.592C700.575 239.557 704.586 235.632 709.706 232.816C714.911 229.915 720.799 228.464 727.37 228.464C734.111 228.464 740.042 229.915 745.162 232.816C750.367 235.632 754.378 239.557 757.194 244.592C760.095 249.627 761.546 255.429 761.546 262C761.546 268.571 760.095 274.373 757.194 279.408C754.378 284.443 750.41 288.411 745.29 291.312C740.17 294.128 734.325 295.536 727.754 295.536ZM727.754 277.104C730.314 277.104 732.575 276.464 734.538 275.184C736.586 273.904 738.165 272.155 739.274 269.936C740.469 267.632 741.066 264.987 741.066 262C741.066 259.013 740.469 256.411 739.274 254.192C738.165 251.888 736.586 250.096 734.538 248.816C732.49 247.536 730.143 246.896 727.498 246.896C724.853 246.896 722.506 247.536 720.458 248.816C718.41 250.096 716.789 251.888 715.594 254.192C714.485 256.411 713.93 259.013 713.93 262C713.93 264.987 714.485 267.632 715.594 269.936C716.789 272.155 718.41 273.904 720.458 275.184C722.591 276.464 725.023 277.104 727.754 277.104ZM790.222 279.792L778.446 265.968L810.574 230H833.998L790.222 279.792ZM771.278 294V204.4H791.246V294H771.278ZM812.494 294L792.654 265.712L805.71 252.016L835.662 294H812.494ZM876.049 295.536C871.697 295.536 867.516 294.981 863.505 293.872C859.58 292.677 855.996 291.099 852.753 289.136C849.596 287.088 846.993 284.827 844.945 282.352C842.897 279.792 841.617 277.061 841.105 274.16L861.457 268.4C862.396 270.875 864.017 273.051 866.321 274.928C868.71 276.72 871.697 277.659 875.281 277.744C878.78 277.829 881.681 277.019 883.985 275.312C886.374 273.605 887.569 271.387 887.569 268.656C887.569 266.523 886.716 264.645 885.009 263.024C883.388 261.403 881.041 260.165 877.969 259.312L865.297 256.112C860.86 255.003 856.977 253.253 853.649 250.864C850.406 248.475 847.846 245.573 845.969 242.16C844.177 238.661 843.281 234.693 843.281 230.256C843.281 221.637 846.14 214.939 851.857 210.16C857.574 205.296 865.638 202.864 876.049 202.864C881.766 202.864 886.758 203.675 891.025 205.296C895.292 206.832 898.918 209.136 901.905 212.208C904.977 215.28 907.409 219.12 909.201 223.728L888.977 229.744C888.294 227.44 886.801 225.349 884.497 223.472C882.278 221.595 879.377 220.656 875.793 220.656C872.209 220.656 869.393 221.467 867.345 223.088C865.382 224.709 864.401 227.056 864.401 230.128C864.401 232.261 865.212 234.053 866.833 235.504C868.454 236.869 870.673 237.893 873.489 238.576L886.161 241.776C893.414 243.568 899.046 246.939 903.057 251.888C907.153 256.752 909.201 262.299 909.201 268.528C909.201 274.16 907.878 278.981 905.233 282.992C902.673 287.003 898.918 290.117 893.969 292.336C889.02 294.469 883.046 295.536 876.049 295.536ZM947.798 295.536C940.203 295.536 934.529 293.744 930.774 290.16C927.105 286.491 925.27 281.285 925.27 274.544V210.032H945.238V269.552C945.238 272.112 945.707 273.989 946.646 275.184C947.585 276.379 949.035 276.976 950.998 276.976C951.766 276.976 952.662 276.805 953.686 276.464C954.71 276.037 955.649 275.525 956.502 274.928L963.414 289.52C961.366 291.227 958.891 292.677 955.99 293.872C953.174 294.981 950.443 295.536 947.798 295.536ZM915.286 246.768V230H959.83V246.768H915.286ZM1002.75 295.536C996.013 295.536 990.082 294.128 984.962 291.312C979.842 288.411 975.789 284.443 972.802 279.408C969.901 274.373 968.45 268.571 968.45 262C968.45 255.429 969.858 249.627 972.674 244.592C975.575 239.557 979.586 235.632 984.706 232.816C989.911 229.915 995.799 228.464 1002.37 228.464C1009.11 228.464 1015.04 229.915 1020.16 232.816C1025.37 235.632 1029.38 239.557 1032.19 244.592C1035.1 249.627 1036.55 255.429 1036.55 262C1036.55 268.571 1035.1 274.373 1032.19 279.408C1029.38 284.443 1025.41 288.411 1020.29 291.312C1015.17 294.128 1009.32 295.536 1002.75 295.536ZM1002.75 277.104C1005.31 277.104 1007.58 276.464 1009.54 275.184C1011.59 273.904 1013.16 272.155 1014.27 269.936C1015.47 267.632 1016.07 264.987 1016.07 262C1016.07 259.013 1015.47 256.411 1014.27 254.192C1013.16 251.888 1011.59 250.096 1009.54 248.816C1007.49 247.536 1005.14 246.896 1002.5 246.896C999.853 246.896 997.506 247.536 995.458 248.816C993.41 250.096 991.789 251.888 990.594 254.192C989.485 256.411 988.93 259.013 988.93 262C988.93 264.987 989.485 267.632 990.594 269.936C991.789 272.155 993.41 273.904 995.458 275.184C997.591 276.464 1000.02 277.104 1002.75 277.104ZM1061 260.848C1061 253.936 1062.36 248.176 1065.09 243.568C1067.91 238.96 1071.41 235.504 1075.59 233.2C1079.86 230.896 1084.29 229.744 1088.9 229.744V249.2C1084.98 249.2 1081.26 249.627 1077.77 250.48C1074.35 251.333 1071.58 252.656 1069.45 254.448C1067.31 256.155 1066.25 258.373 1066.25 261.104L1061 260.848ZM1046.28 294V230H1066.25V294H1046.28ZM1128 295.536C1121.34 295.536 1115.45 294.128 1110.33 291.312C1105.21 288.496 1101.2 284.571 1098.3 279.536C1095.4 274.501 1093.95 268.656 1093.95 262C1093.95 255.344 1095.4 249.499 1098.3 244.464C1101.2 239.429 1105.21 235.504 1110.33 232.688C1115.54 229.872 1121.51 228.464 1128.25 228.464C1134.31 228.464 1139.77 229.915 1144.64 232.816C1149.5 235.717 1153.34 240.069 1156.16 245.872C1159.06 251.589 1160.51 258.672 1160.51 267.12H1112.38L1114.56 264.688C1114.56 267.589 1115.16 270.149 1116.35 272.368C1117.54 274.587 1119.21 276.293 1121.34 277.488C1123.48 278.597 1125.86 279.152 1128.51 279.152C1131.67 279.152 1134.31 278.469 1136.45 277.104C1138.58 275.653 1140.07 273.861 1140.93 271.728L1158.72 277.744C1157.01 281.84 1154.58 285.211 1151.42 287.856C1148.35 290.501 1144.81 292.464 1140.8 293.744C1136.79 294.939 1132.52 295.536 1128 295.536ZM1115.07 256.496L1113.02 253.808H1141.69L1139.77 256.496C1139.77 253.253 1139.13 250.736 1137.85 248.944C1136.57 247.067 1135 245.701 1133.12 244.848C1131.33 243.995 1129.49 243.568 1127.61 243.568C1125.74 243.568 1123.82 243.995 1121.85 244.848C1119.98 245.701 1118.36 247.067 1116.99 248.944C1115.71 250.736 1115.07 253.253 1115.07 256.496Z" fill="white"/>
<defs>
<filter id="filter0_i_2061_81" x="105" y="104" width="204" height="212" filterUnits="userSpaceOnUse" color-interpolation-filters="sRGB">
<feFlood flood-opacity="0" result="BackgroundImageFix"/>
<feBlend mode="normal" in="SourceGraphic" in2="BackgroundImageFix" result="shape"/>
<feColorMatrix in="SourceAlpha" type="matrix" values="0 0 0 0 0 0 0 0 0 0 0 0 0 0 0 0 0 0 127 0" result="hardAlpha"/>
<feMorphology radius="4" operator="erode" in="SourceAlpha" result="effect1_innerShadow_2061_81"/>
<feOffset dx="-4" dy="12"/>
<feGaussianBlur stdDeviation="10"/>
<feComposite in2="hardAlpha" operator="arithmetic" k2="-1" k3="1"/>
<feColorMatrix type="matrix" values="0 0 0 0 0 0 0 0 0 0 0 0 0 0 0 0 0 0 0.25 0"/>
<feBlend mode="normal" in2="shape" result="effect1_innerShadow_2061_81"/>
</filter>
<filter id="filter1_i_2061_81" x="197" y="192" width="212" height="212" filterUnits="userSpaceOnUse" color-interpolation-filters="sRGB">
<feFlood flood-opacity="0" result="BackgroundImageFix"/>
<feBlend mode="normal" in="SourceGraphic" in2="BackgroundImageFix" result="shape"/>
<feColorMatrix in="SourceAlpha" type="matrix" values="0 0 0 0 0 0 0 0 0 0 0 0 0 0 0 0 0 0 127 0" result="hardAlpha"/>
<feMorphology radius="12" operator="erode" in="SourceAlpha" result="effect1_innerShadow_2061_81"/>
<feOffset dx="-12" dy="-12"/>
<feGaussianBlur stdDeviation="6"/>
<feComposite in2="hardAlpha" operator="arithmetic" k2="-1" k3="1"/>
<feColorMatrix type="matrix" values="0 0 0 0 0 0 0 0 0 0 0 0 0 0 0 0 0 0 0.25 0"/>
<feBlend mode="normal" in2="shape" result="effect1_innerShadow_2061_81"/>
</filter>
<filter id="filter2_i_2061_81" x="105" y="104" width="204" height="212" filterUnits="userSpaceOnUse" color-interpolation-filters="sRGB">
<feFlood flood-opacity="0" result="BackgroundImageFix"/>
<feBlend mode="normal" in="SourceGraphic" in2="BackgroundImageFix" result="shape"/>
<feColorMatrix in="SourceAlpha" type="matrix" values="0 0 0 0 0 0 0 0 0 0 0 0 0 0 0 0 0 0 127 0" result="hardAlpha"/>
<feMorphology radius="4" operator="erode" in="SourceAlpha" result="effect1_innerShadow_2061_81"/>
<feOffset dx="-4" dy="12"/>
<feGaussianBlur stdDeviation="10"/>
<feComposite in2="hardAlpha" operator="arithmetic" k2="-1" k3="1"/>
<feColorMatrix type="matrix" values="0 0 0 0 0 0 0 0 0 0 0 0 0 0 0 0 0 0 0.25 0"/>
<feBlend mode="normal" in2="shape" result="effect1_innerShadow_2061_81"/>
</filter>
<filter id="filter3_i_2061_81" x="197" y="192" width="212" height="212" filterUnits="userSpaceOnUse" color-interpolation-filters="sRGB">
<feFlood flood-opacity="0" result="BackgroundImageFix"/>
<feBlend mode="normal" in="SourceGraphic" in2="BackgroundImageFix" result="shape"/>
<feColorMatrix in="SourceAlpha" type="matrix" values="0 0 0 0 0 0 0 0 0 0 0 0 0 0 0 0 0 0 127 0" result="hardAlpha"/>
<feMorphology radius="12" operator="erode" in="SourceAlpha" result="effect1_innerShadow_2061_81"/>
<feOffset dx="-12" dy="-12"/>
<feGaussianBlur stdDeviation="6"/>
<feComposite in2="hardAlpha" operator="arithmetic" k2="-1" k3="1"/>
<feColorMatrix type="matrix" values="0 0 0 0 0 0 0 0 0 0 0 0 0 0 0 0 0 0 0.25 0"/>
<feBlend mode="normal" in2="shape" result="effect1_innerShadow_2061_81"/>
</filter>
</defs>
</svg>
